<?xml version="1.0" encoding="UTF-8"?>
<svg xmlns="http://www.w3.org/2000/svg" width="579" height="683" viewBox="0 0 579 683" overflow="visible" shape-rendering="geometricPrecision" text-rendering="geometricPrecision" role="img" aria-labelledby="title desc">
  <title id="title">Psychevo icon black-white gradient cropped</title>
  <desc id="desc">Text-free cropped Psychevo icon with transparent background, smooth lines, and a black-to-white gradient fill.</desc>
  <defs>
    <linearGradient id="bwGradient" x1="0%" y1="100%" x2="100%" y2="0%">
      <stop offset="0%" stop-color="#f2f2f2"/>
      <stop offset="28%" stop-color="#b9b9b9"/>
      <stop offset="58%" stop-color="#696969"/>
      <stop offset="100%" stop-color="#111111"/>
    </linearGradient>
  </defs>
  <path d="M281,54L159,118L160,120L217,127L223,133L222,385L201,381L156,382L123,390L94,403L72,418L52,438L38,459L28,485L24,512L25,543L33,574L42,592L54,609L80,633L103,646L126,654L150,658L183,657L218,648L244,635L268,617L287,597L301,577L312,555L318,538L324,504L324,475L319,442L313,425L290,448L272,473L257,498L234,544L221,564L201,584L183,594L162,599L147,599L136,597L119,590L102,576L92,562L86,548L82,528L82,511L85,496L94,475L104,461L123,444L148,431L176,424L209,422L217,400L234,373L261,345L281,329ZM460,39L421,27L396,24L374,24L350,27L330,32L301,43L293,48L293,120L321,98L335,91L354,85L387,82L408,85L424,90L437,96L452,106L466,119L477,134L485,150L489,163L491,195L487,215L479,234L467,251L453,265L433,278L417,285L367,299L315,319L294,331L272,347L241,378L221,411L214,431L211,447L211,477L213,490L220,514L228,532L230,533L264,470L280,448L306,421L347,392L436,348L478,322L496,307L515,287L532,263L542,243L548,226L554,197L554,168L552,150L543,121L529,96L509,72L487,54ZM225,434L230,421L270,434L273,437L268,446L264,449L228,438ZM238,404L246,393L285,406L289,409L281,420ZM221,454L258,466L250,480L219,470Z" fill="url(#bwGradient)" fill-rule="evenodd" clip-rule="evenodd"/>
</svg>
