<svg xmlns="http://www.w3.org/2000/svg" viewBox="24 24 530 634">
  <defs>
    <linearGradient id="g" x1="24" y1="658" x2="554" y2="24" gradientUnits="userSpaceOnUse">
      <stop stop-color="#f2f2f2"/>
      <stop offset=".32" stop-color="#b9b9b9"/>
      <stop offset=".68" stop-color="#696969"/>
      <stop offset="1" stop-color="#111"/>
    </linearGradient>
  </defs>
  <path fill="url(#g)" fill-rule="evenodd" d="M281 54 159 118l1 2 57 7 6 6-1 252-21-4-45 1-33 8-29 13-22 15-20 20-14 21-10 26-4 27 1 31 8 31 9 18 12 17 26 24 23 13 23 8 24 4 33-1 35-9 26-13 24-18 19-20 14-20 11-22 6-17 6-34v-29l-5-33-6-17-23 23-18 25-15 25-23 46-13 20-20 20-18 10-21 5h-15l-11-2-17-7-17-14-10-14-6-14-4-20v-17l3-15 9-21 10-14 19-17 25-13 28-7 33-2 8-22 17-27 27-28 20-16ZM460 39l-39-12-25-3h-22l-24 3-20 5-29 11-8 5v72l28-22 14-7 19-6 33-3 21 3 16 5 13 6 15 10 14 13 11 15 8 16 4 13 2 32-4 20-8 19-12 17-14 14-20 13-16 7-50 14-52 20-21 12-22 16-31 31-20 33-7 20-3 16v30l2 13 7 24 8 18 2 1 34-63 16-22 26-27 41-29 89-44 42-26 15-15 19-20 17-24 10-20 6-17 6-29v-29l-2-18-9-29-14-25-20-24-22-18Zm-235 395 5-13 40 13 3 3-5 9-4 3-36-11Zm13-30 8-11 39 13 4 3-8 11Zm-17 50 37 12-8 14-31-10Z"/>
</svg>
